<svg xmlns="http://www.w3.org/2000/svg" width="517.006" height="491.215" viewBox="0 0 517.006 491.215">
  <g id="Urban_Farmers" data-name="Urban Farmers" transform="translate(-356.014 -457.973)">
    <text id="URBAN_FARMERS-2" data-name="URBAN FARMERS" transform="translate(457.631 941.188)" fill="#020000" font-size="36.765" font-family="Helvetica" letter-spacing="0.15em"><tspan x="0" y="0">URBAN FARMERS</tspan></text>
    <path id="Path_1" data-name="Path 1" d="M2847.531,780q-5.73,5.79-12.4,11.41c-38.66,32.58-84.93,57.12-132.32,73.46a451.985,451.985,0,0,1-54.48,5.93,451.741,451.741,0,0,1-48.38-7.74c-68.25-24.29-129.52-65.01-170.23-109.2,10-25.19,28.28-53.94,56.55-86.29,0,0,21.87-23.72,53.99-83.17q4.68-8.655,9.63-18.33,4.275-8.355,8.74-17.51c8.2-16.82,16.83-35.66,25.75-56.67,13.19-31.05,45.82-38.97,85.04-30.85a216.178,216.178,0,0,1,40.26,12.92,307.789,307.789,0,0,1,36.28,18.45,361.933,361.933,0,0,1,48.35,34.36.078.078,0,0,1,.03.02,361.483,361.483,0,0,1,34.91,44.41,363.252,363.252,0,0,1,19.55,46.2.035.035,0,0,0,.01.02C2861.1,669.79,2862.4,729.94,2847.531,780Z" transform="translate(-2020)" fill="#00d05e"/>
    <path id="Path_2" data-name="Path 2" d="M2648.331,870.8a451.985,451.985,0,0,0,54.48-5.93q-12.69,4.38-25.46,7.98-11.235,3.165-22.45,5.72c-114.69,26.16-223.22,4.05-233.79-68.51a93.822,93.822,0,0,1,1.31-32.21,143.325,143.325,0,0,1,7.3-23.99c40.71,44.19,101.98,84.91,170.23,109.2A451.741,451.741,0,0,0,2648.331,870.8Z" transform="translate(-2020)" fill="#00d05e"/>
    <path id="Path_3" data-name="Path 3" d="M2877.551,736.97a131.8,131.8,0,0,1-14.7,25.25,158.46,158.46,0,0,1-15.32,17.78c14.87-50.06,13.57-110.21,1.28-162.58a.035.035,0,0,1-.01-.02,363.252,363.252,0,0,0-19.55-46.2,361.483,361.483,0,0,0-34.91-44.41c6.88,5.79,13.57,11.85,19.99,18.15q8.13,7.965,15.67,16.4C2876.491,613.55,2903.341,678.15,2877.551,736.97Z" transform="translate(-2020)" fill="#00d05e"/>
    <path id="Path_4" data-name="Path 4" d="M2486.267,667.568s104.274,47.032,136.292-11.288c67.123-122.265,403.361-25.677,212.575,135.128S2268.225,917.125,2486.267,667.568Z" transform="translate(-2020)" fill="#020000"/>
    <path id="Path_5" data-name="Path 5" d="M2539.651,550.78s6.32-.26,18.98-2.22q-4.455,9.15-8.74,17.51-4.95,9.69-9.63,18.33c-32.12,59.45-53.99,83.17-53.99,83.17-28.27,32.35-46.55,61.1-56.55,86.29a252.812,252.812,0,0,1-30.36-39.75c-8.34-13.74-14.4-27.46-17.79-40.77C2366.011,612.36,2406.391,559.76,2539.651,550.78Z" transform="translate(-2020)" fill="none" stroke="#020000" stroke-miterlimit="10" stroke-width="4"/>
    <path id="Path_6" data-name="Path 6" d="M2794.311,526.77a361.933,361.933,0,0,0-48.35-34.36,49.776,49.776,0,0,1,10.38-.51,52.379,52.379,0,0,1,16.92,3.88c22.41,9.13,42.02,33.36,56.74,65.56a272.926,272.926,0,0,1,11.32,29.23c2.82,8.64,5.33,17.61,7.48,26.83a363.252,363.252,0,0,0-19.55-46.2,361.483,361.483,0,0,0-34.91-44.41A.078.078,0,0,0,2794.311,526.77Z" transform="translate(-2020)" fill="none" stroke="#020000" stroke-miterlimit="10" stroke-width="4"/>
    <path id="Path_7" data-name="Path 7" d="M2835.131,791.41q6.675-5.625,12.4-11.41a192.329,192.329,0,0,1-13.49,33.92,147.9,147.9,0,0,1-18.42,27.78c-25.49,30.15-63.49,47.89-116.86,43.34a369.273,369.273,0,0,1-43.86-6.47q-14.7-3.06-29.16-7.22-13.035-3.735-25.79-8.29a451.741,451.741,0,0,0,48.38,7.74,451.985,451.985,0,0,0,54.48-5.93C2750.2,848.53,2796.471,823.99,2835.131,791.41Z" transform="translate(-2020)" fill="none" stroke="#020000" stroke-miterlimit="10" stroke-width="4"/>
    <path id="Path_8" data-name="Path 8" d="M2599.951,863.06c-71.73-15.44-136.7-47.26-177.53-85.21-12.78-11.87-23.2-24.34-30.71-37.1-13.06-22.15-17.37-45.17-10.14-67.41,11.48-35.33,52.13-68.68,133.18-93.42,0,0,11.99-3.31,35.14-13.85q-4.95,9.69-9.63,18.33c-32.12,59.45-53.99,83.17-53.99,83.17-28.27,32.35-46.55,61.1-56.55,86.29C2470.431,798.05,2531.7,838.77,2599.951,863.06Z" transform="translate(-2020)" fill="none" stroke="#020000" stroke-miterlimit="10" stroke-width="4"/>
    <path id="Path_9" data-name="Path 9" d="M2745.961,492.41a307.789,307.789,0,0,0-36.28-18.45,51.083,51.083,0,0,1,17.04-1.02c15.49,1.6,31.34,9.81,46.54,22.84,14.57,12.48,28.56,29.39,41.07,49.16,5.25,8.29,10.24,17.08,14.92,26.26a361.483,361.483,0,0,0-34.91-44.41.078.078,0,0,0-.03-.02A361.933,361.933,0,0,0,2745.961,492.41Z" transform="translate(-2020)" fill="none" stroke="#020000" stroke-miterlimit="10" stroke-width="4"/>
    <path id="Path_10" data-name="Path 10" d="M2862.851,762.22a155.62,155.62,0,0,1-11.11,33.93,121.034,121.034,0,0,1-36.12,45.55c-17.87,13.72-40.94,23.43-70.04,27.65a381.718,381.718,0,0,1-68.23,3.5q-14.55-.525-29.02-2.05a451.985,451.985,0,0,0,54.48-5.93c47.39-16.34,93.66-40.88,132.32-73.46q6.675-5.625,12.4-11.41c14.87-50.06,13.57-110.21,1.28-162.58C2865.231,665.21,2872.191,717.53,2862.851,762.22Z" transform="translate(-2020)" fill="none" stroke="#020000" stroke-miterlimit="10" stroke-width="4"/>
    <path id="Path_11" data-name="Path 11" d="M2599.951,863.06a451.741,451.741,0,0,0,48.38,7.74q-11.34.555-22.59.55c-84.85,0-163.51-23.25-204.63-61.29-21.17-19.57-32.39-43.06-29.4-69.31a87.79,87.79,0,0,1,7.65-26.64c13.28-29.11,43.5-60.81,95.49-93.8,0,0,16.3-9.74,45.41-35.91-32.12,59.45-53.99,83.17-53.99,83.17-28.27,32.35-46.55,61.1-56.55,86.29C2470.431,798.05,2531.7,838.77,2599.951,863.06Z" transform="translate(-2020)" fill="none" stroke="#020000" stroke-miterlimit="10" stroke-width="4"/>
    <path id="Path_12" data-name="Path 12" d="M2709.681,473.96a216.178,216.178,0,0,0-40.26-12.92c17.09-3.28,36.86,1.36,57.3,11.9a201.451,201.451,0,0,1,29.62,18.96,297.443,297.443,0,0,1,37.97,34.87,361.933,361.933,0,0,0-48.35-34.36A307.789,307.789,0,0,0,2709.681,473.96Z" transform="translate(-2020)" fill="none" stroke="#020000" stroke-miterlimit="10" stroke-width="4"/>
    <path id="Path_13" data-name="Path 13" d="M2877.551,736.97c-3.27,21.47-11.48,41.6-25.81,59.18a127.432,127.432,0,0,1-17.7,17.77,166.5,166.5,0,0,1-39.71,24,393.4,393.4,0,0,1-91.52,26.95c47.39-16.34,93.66-40.88,132.32-73.46q6.675-5.625,12.4-11.41c14.87-50.06,13.57-110.21,1.28-162.58a.035.035,0,0,1-.01-.02,363.252,363.252,0,0,0-19.55-46.2q6.33,9.48,12.07,19.37C2868.551,637.55,2884.651,690.42,2877.551,736.97Z" transform="translate(-2020)" fill="none" stroke="#020000" stroke-miterlimit="10" stroke-width="4"/>
    <text id="uf" transform="translate(484.874 805.526)" fill="#00d05e" font-size="149.301" font-family="Helvetica" letter-spacing="0.05em"><tspan x="0" y="0">uf</tspan></text>
    <path id="Path_14" data-name="Path 14" d="M2636.091,649.219s37.294-29.172,33.566-69.885c0,0-1.457-9.97-10.85-7.733,0,0-12.638,12.963-28.171-6.344s-30.249-1.763-30.249-1.763,32.581-39.644,64.845,3.573c0,0,7.192-20.306,1.4-31.261,0,0-10.889-2.8-9.934-10.167s.77-9.812.77-9.812,9.54,5.035,11.35,13.96c0,0-4.375-15.641,1.1-36.675,0,0,5.493,30.227,3.434,39.163,0,0-.624-9.574,13.751-12.826,0,0-1.932,13.062-12.218,18.091,0,0-6.223,21.242-.008,29.739,0,0,1.424-23.521,37.576-18.619,0,0-12.192,4.8-14.145,8.91s-7.215,16.827-18.98,16.813c0,0-15.685,21.5,13.453,52.145C2692.782,626.528,2663.134,659.415,2636.091,649.219Z" transform="translate(-2020)" fill="#020000"/>
    <path id="Path_15" data-name="Path 15" d="M2723.094,636.311s-19.519-15.267-17.567-36.574c0,0,.762-5.218,5.678-4.048,0,0,6.614,6.785,14.743-3.32s15.832-.922,15.832-.922-17.052-20.749-33.938,1.87c0,0-3.764-10.628-.734-16.361,0,0,5.7-1.464,5.2-5.321a30.635,30.635,0,0,1-.4-5.135s-4.993,2.635-5.94,7.306c0,0,2.29-8.186-.574-19.194,0,0-2.876,15.819-1.8,20.5,0,0,.327-5.011-7.2-6.713,0,0,1.012,6.836,6.4,9.468,0,0,3.257,11.118,0,15.564,0,0-.745-12.31-19.666-9.744,0,0,6.381,2.51,7.4,4.663s3.776,8.807,9.934,8.8c0,0,8.208,11.255-7.041,27.291C2693.424,624.436,2708.941,641.647,2723.094,636.311Z" transform="translate(-2020)" fill="#020000"/>
  </g>
</svg>
