<svg xmlns="http://www.w3.org/2000/svg" width="517.008" height="491.216" viewBox="0 0 517.008 491.216">
  <g id="Urban_Outlets" data-name="Urban Outlets" transform="translate(-364.5 -1135.462)">
    <text id="URBAN_OUTLETS-2" data-name="URBAN OUTLETS" transform="translate(477.504 1618.678)" fill="#0e0017" font-size="36.765" font-family="Helvetica" letter-spacing="0.15em"><tspan x="0" y="0">URBAN OUTLETS</tspan></text>
    <path id="Path_30" data-name="Path 30" d="M2856.018,1457.489q-5.73,5.79-12.4,11.41c-38.66,32.58-84.93,57.12-132.32,73.46a451.96,451.96,0,0,1-54.48,5.93,451.71,451.71,0,0,1-48.38-7.74c-68.25-24.29-129.52-65.01-170.23-109.2,10-25.19,28.28-53.94,56.55-86.29,0,0,21.87-23.72,53.99-83.17q4.68-8.655,9.63-18.33,4.275-8.355,8.74-17.51c8.2-16.82,16.83-35.66,25.75-56.67,13.19-31.05,45.82-38.97,85.04-30.85a216.177,216.177,0,0,1,40.26,12.92,307.8,307.8,0,0,1,36.28,18.45,361.921,361.921,0,0,1,48.35,34.36.074.074,0,0,1,.03.02,361.483,361.483,0,0,1,34.91,44.41,363.253,363.253,0,0,1,19.55,46.2.035.035,0,0,0,.01.02C2869.588,1347.279,2870.888,1407.429,2856.018,1457.489Z" transform="translate(-2020)" fill="#b000ff"/>
    <path id="Path_31" data-name="Path 31" d="M2656.818,1548.289a451.96,451.96,0,0,0,54.48-5.93q-12.69,4.38-25.46,7.98-11.235,3.165-22.45,5.72c-114.69,26.16-223.22,4.05-233.79-68.51a93.828,93.828,0,0,1,1.31-32.21,143.3,143.3,0,0,1,7.3-23.99c40.71,44.19,101.98,84.91,170.23,109.2A451.71,451.71,0,0,0,2656.818,1548.289Z" transform="translate(-2020)" fill="#00d05e"/>
    <path id="Path_32" data-name="Path 32" d="M2886.038,1414.459a131.789,131.789,0,0,1-14.7,25.25,158.437,158.437,0,0,1-15.32,17.78c14.87-50.06,13.57-110.21,1.28-162.58a.035.035,0,0,1-.01-.02,363.253,363.253,0,0,0-19.55-46.2,361.483,361.483,0,0,0-34.91-44.41c6.88,5.79,13.57,11.85,19.99,18.15q8.13,7.965,15.67,16.4C2884.978,1291.039,2911.828,1355.639,2886.038,1414.459Z" transform="translate(-2020)" fill="#b000ff"/>
    <path id="Path_33" data-name="Path 33" d="M2494.754,1345.058s104.274,47.031,136.292-11.289c67.123-122.265,403.361-25.677,212.575,135.129S2276.713,1594.614,2494.754,1345.058Z" transform="translate(-2020)" fill="#0e0017"/>
    <path id="Path_34" data-name="Path 34" d="M2548.138,1228.269s6.32-.26,18.98-2.22q-4.455,9.15-8.74,17.51-4.95,9.69-9.63,18.33c-32.12,59.45-53.99,83.17-53.99,83.17-28.27,32.35-46.55,61.1-56.55,86.29a252.835,252.835,0,0,1-30.36-39.75c-8.34-13.74-14.4-27.46-17.79-40.77C2374.5,1289.849,2414.878,1237.249,2548.138,1228.269Z" transform="translate(-2020)" fill="none" stroke="#0e0017" stroke-miterlimit="10" stroke-width="4"/>
    <path id="Path_35" data-name="Path 35" d="M2802.8,1204.259a361.921,361.921,0,0,0-48.35-34.36,49.769,49.769,0,0,1,10.38-.51,52.376,52.376,0,0,1,16.92,3.88c22.41,9.13,42.02,33.36,56.74,65.56a272.941,272.941,0,0,1,11.32,29.23c2.82,8.64,5.33,17.61,7.48,26.83a363.253,363.253,0,0,0-19.55-46.2,361.483,361.483,0,0,0-34.91-44.41A.074.074,0,0,0,2802.8,1204.259Z" transform="translate(-2020)" fill="none" stroke="#0e0017" stroke-miterlimit="10" stroke-width="4"/>
    <path id="Path_36" data-name="Path 36" d="M2843.618,1468.9q6.675-5.625,12.4-11.41a192.331,192.331,0,0,1-13.49,33.92,147.894,147.894,0,0,1-18.42,27.78c-25.49,30.15-63.49,47.89-116.86,43.34a369.273,369.273,0,0,1-43.86-6.47q-14.7-3.06-29.16-7.22-13.035-3.735-25.79-8.29a451.71,451.71,0,0,0,48.38,7.74,451.96,451.96,0,0,0,54.48-5.93C2758.688,1526.019,2804.958,1501.479,2843.618,1468.9Z" transform="translate(-2020)" fill="none" stroke="#0e0017" stroke-miterlimit="10" stroke-width="4"/>
    <path id="Path_37" data-name="Path 37" d="M2608.438,1540.549c-71.73-15.44-136.7-47.26-177.53-85.21-12.78-11.87-23.2-24.34-30.71-37.1-13.06-22.15-17.37-45.17-10.14-67.41,11.48-35.33,52.13-68.68,133.18-93.42,0,0,11.99-3.31,35.14-13.85q-4.95,9.69-9.63,18.33c-32.12,59.45-53.99,83.17-53.99,83.17-28.27,32.35-46.55,61.1-56.55,86.29C2478.918,1475.539,2540.188,1516.259,2608.438,1540.549Z" transform="translate(-2020)" fill="none" stroke="#0e0017" stroke-miterlimit="10" stroke-width="4"/>
    <path id="Path_38" data-name="Path 38" d="M2754.448,1169.9a307.8,307.8,0,0,0-36.28-18.45,51.086,51.086,0,0,1,17.04-1.02c15.49,1.6,31.34,9.81,46.54,22.84,14.57,12.48,28.56,29.39,41.07,49.16,5.25,8.29,10.24,17.08,14.92,26.26a361.483,361.483,0,0,0-34.91-44.41.074.074,0,0,0-.03-.02A361.921,361.921,0,0,0,2754.448,1169.9Z" transform="translate(-2020)" fill="none" stroke="#0e0017" stroke-miterlimit="10" stroke-width="4"/>
    <path id="Path_39" data-name="Path 39" d="M2871.338,1439.709a155.619,155.619,0,0,1-11.11,33.93,121.032,121.032,0,0,1-36.12,45.55c-17.87,13.72-40.94,23.43-70.04,27.65a381.715,381.715,0,0,1-68.23,3.5q-14.55-.525-29.02-2.05a451.96,451.96,0,0,0,54.48-5.93c47.39-16.34,93.66-40.88,132.32-73.46q6.675-5.625,12.4-11.41c14.87-50.06,13.57-110.21,1.28-162.58C2873.718,1342.7,2880.678,1395.019,2871.338,1439.709Z" transform="translate(-2020)" fill="none" stroke="#0e0017" stroke-miterlimit="10" stroke-width="4"/>
    <path id="Path_40" data-name="Path 40" d="M2608.438,1540.549a451.71,451.71,0,0,0,48.38,7.74q-11.34.555-22.59.55c-84.85,0-163.51-23.25-204.63-61.29-21.17-19.57-32.39-43.06-29.4-69.31a87.8,87.8,0,0,1,7.65-26.64c13.28-29.11,43.5-60.81,95.49-93.8,0,0,16.3-9.74,45.41-35.91-32.12,59.45-53.99,83.17-53.99,83.17-28.27,32.35-46.55,61.1-56.55,86.29C2478.918,1475.539,2540.188,1516.259,2608.438,1540.549Z" transform="translate(-2020)" fill="none" stroke="#0e0017" stroke-miterlimit="10" stroke-width="4"/>
    <path id="Path_41" data-name="Path 41" d="M2718.168,1151.449a216.177,216.177,0,0,0-40.26-12.92c17.09-3.28,36.86,1.36,57.3,11.9a201.437,201.437,0,0,1,29.62,18.96,297.437,297.437,0,0,1,37.97,34.87,361.921,361.921,0,0,0-48.35-34.36A307.8,307.8,0,0,0,2718.168,1151.449Z" transform="translate(-2020)" fill="none" stroke="#0e0017" stroke-miterlimit="10" stroke-width="4"/>
    <path id="Path_42" data-name="Path 42" d="M2886.038,1414.459c-3.27,21.47-11.48,41.6-25.81,59.18a127.445,127.445,0,0,1-17.7,17.77,166.509,166.509,0,0,1-39.71,24,393.4,393.4,0,0,1-91.52,26.95c47.39-16.34,93.66-40.88,132.32-73.46q6.675-5.625,12.4-11.41c14.87-50.06,13.57-110.21,1.28-162.58a.035.035,0,0,1-.01-.02,363.253,363.253,0,0,0-19.55-46.2q6.33,9.48,12.07,19.37C2877.038,1315.039,2893.138,1367.909,2886.038,1414.459Z" transform="translate(-2020)" fill="none" stroke="#0e0017" stroke-miterlimit="10" stroke-width="4"/>
    <text id="uo" transform="translate(493.36 1483.016)" fill="#b000ff" font-size="149.301" font-family="Helvetica" letter-spacing="0.05em"><tspan x="0" y="0">uo</tspan></text>
    <path id="Path_43" data-name="Path 43" d="M2645.283,1340.486s15.84-27,8.64-91.258c0,0,36,15.3,100.8,0,0,0,17.594,94.138,8.8,91.258S2645.283,1340.486,2645.283,1340.486Z" transform="translate(-2020)" fill="#0e0017"/>
    <path id="Path_44" data-name="Path 44" d="M2570.03,1366.417s11.157-25.995,6.086-87.875c0,0,25.356,14.735,71,0,0,0,12.392,90.648,6.2,87.875S2570.03,1366.417,2570.03,1366.417Z" transform="translate(-2020)" fill="#0e0017"/>
    <path id="Path_45" data-name="Path 45" d="M2598,1293.123s-7.507-27.374,14.1-30.726,15.432,32.512,15.432,32.512" transform="translate(-2020)" fill="none" stroke="#0e0017" stroke-miterlimit="10" stroke-width="3"/>
    <path id="Path_46" data-name="Path 46" d="M2682.164,1263.148s-10.481-36.776,19.68-41.28,21.545,43.68,21.545,43.68" transform="translate(-2020)" fill="none" stroke="#0e0017" stroke-miterlimit="10" stroke-width="3"/>
  </g>
</svg>
