<svg xmlns="http://www.w3.org/2000/svg" width="517.007" height="491.216" viewBox="0 0 517.007 491.216">
  <g id="Urban_Brands" data-name="Urban Brands" transform="translate(-1081.593 -1135.462)">
    <text id="URBAN_BRANDS-2" data-name="URBAN BRANDS" transform="translate(1194.597 1618.678)" fill="#170000" font-size="36.765" font-family="Helvetica" letter-spacing="0.15em"><tspan x="0" y="0">URBAN BRANDS</tspan></text>
    <path id="Path_47" data-name="Path 47" d="M3573.111,1457.489q-5.73,5.79-12.4,11.41c-38.66,32.58-84.93,57.12-132.32,73.46a451.959,451.959,0,0,1-54.48,5.93,451.716,451.716,0,0,1-48.38-7.74c-68.25-24.29-129.52-65.01-170.23-109.2,10-25.19,28.28-53.94,56.55-86.29,0,0,21.87-23.72,53.99-83.17q4.68-8.655,9.63-18.33,4.275-8.355,8.74-17.51c8.2-16.82,16.83-35.66,25.75-56.67,13.19-31.05,45.82-38.97,85.04-30.85a216.177,216.177,0,0,1,40.26,12.92,307.8,307.8,0,0,1,36.28,18.45,361.921,361.921,0,0,1,48.35,34.36.078.078,0,0,1,.03.02,361.483,361.483,0,0,1,34.91,44.41,363.253,363.253,0,0,1,19.55,46.2.035.035,0,0,0,.01.02C3586.681,1347.279,3587.981,1407.429,3573.111,1457.489Z" transform="translate(-2020)" fill="#ff4545"/>
    <path id="Path_48" data-name="Path 48" d="M3373.911,1548.289a451.959,451.959,0,0,0,54.48-5.93q-12.69,4.38-25.46,7.98-11.235,3.165-22.45,5.72c-114.69,26.16-223.22,4.05-233.79-68.51a93.828,93.828,0,0,1,1.31-32.21,143.3,143.3,0,0,1,7.3-23.99c40.71,44.19,101.98,84.91,170.23,109.2A451.716,451.716,0,0,0,3373.911,1548.289Z" transform="translate(-2020)" fill="#00d05e"/>
    <path id="Path_49" data-name="Path 49" d="M3603.131,1414.459a131.789,131.789,0,0,1-14.7,25.25,158.462,158.462,0,0,1-15.32,17.78c14.87-50.06,13.57-110.21,1.28-162.58a.035.035,0,0,1-.01-.02,363.253,363.253,0,0,0-19.55-46.2,361.483,361.483,0,0,0-34.91-44.41c6.88,5.79,13.57,11.85,19.99,18.15q8.13,7.965,15.67,16.4C3602.071,1291.039,3628.921,1355.639,3603.131,1414.459Z" transform="translate(-2020)" fill="#ff4545"/>
    <path id="Path_50" data-name="Path 50" d="M3211.847,1345.058s104.274,47.031,136.291-11.289c67.124-122.265,403.362-25.677,212.575,135.129S2993.8,1594.614,3211.847,1345.058Z" transform="translate(-2020)" fill="#170000"/>
    <path id="Path_51" data-name="Path 51" d="M3265.231,1228.269s6.32-.26,18.98-2.22q-4.455,9.15-8.74,17.51-4.95,9.69-9.63,18.33c-32.12,59.45-53.99,83.17-53.99,83.17-28.27,32.35-46.55,61.1-56.55,86.29a252.835,252.835,0,0,1-30.36-39.75c-8.34-13.74-14.4-27.46-17.79-40.77C3091.591,1289.849,3131.971,1237.249,3265.231,1228.269Z" transform="translate(-2020)" fill="none" stroke="#170000" stroke-miterlimit="10" stroke-width="4"/>
    <path id="Path_52" data-name="Path 52" d="M3519.891,1204.259a361.921,361.921,0,0,0-48.35-34.36,49.769,49.769,0,0,1,10.38-.51,52.376,52.376,0,0,1,16.92,3.88c22.41,9.13,42.02,33.36,56.74,65.56a272.889,272.889,0,0,1,11.32,29.23c2.82,8.64,5.33,17.61,7.48,26.83a363.253,363.253,0,0,0-19.55-46.2,361.483,361.483,0,0,0-34.91-44.41A.078.078,0,0,0,3519.891,1204.259Z" transform="translate(-2020)" fill="none" stroke="#170000" stroke-miterlimit="10" stroke-width="4"/>
    <path id="Path_53" data-name="Path 53" d="M3560.711,1468.9q6.675-5.625,12.4-11.41a192.331,192.331,0,0,1-13.49,33.92,147.906,147.906,0,0,1-18.42,27.78c-25.49,30.15-63.49,47.89-116.86,43.34a369.266,369.266,0,0,1-43.86-6.47q-14.7-3.06-29.16-7.22-13.035-3.735-25.79-8.29a451.716,451.716,0,0,0,48.38,7.74,451.959,451.959,0,0,0,54.48-5.93C3475.781,1526.019,3522.051,1501.479,3560.711,1468.9Z" transform="translate(-2020)" fill="none" stroke="#170000" stroke-miterlimit="10" stroke-width="4"/>
    <path id="Path_54" data-name="Path 54" d="M3325.531,1540.549c-71.73-15.44-136.7-47.26-177.53-85.21-12.78-11.87-23.2-24.34-30.71-37.1-13.06-22.15-17.37-45.17-10.14-67.41,11.48-35.33,52.13-68.68,133.18-93.42,0,0,11.99-3.31,35.14-13.85q-4.95,9.69-9.63,18.33c-32.12,59.45-53.99,83.17-53.99,83.17-28.27,32.35-46.55,61.1-56.55,86.29C3196.011,1475.539,3257.281,1516.259,3325.531,1540.549Z" transform="translate(-2020)" fill="none" stroke="#170000" stroke-miterlimit="10" stroke-width="4"/>
    <path id="Path_55" data-name="Path 55" d="M3471.541,1169.9a307.8,307.8,0,0,0-36.28-18.45,51.086,51.086,0,0,1,17.04-1.02c15.49,1.6,31.34,9.81,46.54,22.84,14.57,12.48,28.56,29.39,41.07,49.16,5.25,8.29,10.24,17.08,14.92,26.26a361.483,361.483,0,0,0-34.91-44.41.078.078,0,0,0-.03-.02A361.921,361.921,0,0,0,3471.541,1169.9Z" transform="translate(-2020)" fill="none" stroke="#170000" stroke-miterlimit="10" stroke-width="4"/>
    <path id="Path_56" data-name="Path 56" d="M3588.431,1439.709a155.619,155.619,0,0,1-11.11,33.93,121.032,121.032,0,0,1-36.12,45.55c-17.87,13.72-40.94,23.43-70.04,27.65a381.711,381.711,0,0,1-68.23,3.5q-14.55-.525-29.02-2.05a451.959,451.959,0,0,0,54.48-5.93c47.39-16.34,93.66-40.88,132.32-73.46q6.675-5.625,12.4-11.41c14.87-50.06,13.57-110.21,1.28-162.58C3590.811,1342.7,3597.771,1395.019,3588.431,1439.709Z" transform="translate(-2020)" fill="none" stroke="#170000" stroke-miterlimit="10" stroke-width="4"/>
    <path id="Path_57" data-name="Path 57" d="M3325.531,1540.549a451.716,451.716,0,0,0,48.38,7.74q-11.34.555-22.59.55c-84.85,0-163.51-23.25-204.63-61.29-21.17-19.57-32.39-43.06-29.4-69.31a87.8,87.8,0,0,1,7.65-26.64c13.28-29.11,43.5-60.81,95.49-93.8,0,0,16.3-9.74,45.41-35.91-32.12,59.45-53.99,83.17-53.99,83.17-28.27,32.35-46.55,61.1-56.55,86.29C3196.011,1475.539,3257.281,1516.259,3325.531,1540.549Z" transform="translate(-2020)" fill="none" stroke="#170000" stroke-miterlimit="10" stroke-width="4"/>
    <path id="Path_58" data-name="Path 58" d="M3435.261,1151.449a216.177,216.177,0,0,0-40.26-12.92c17.09-3.28,36.86,1.36,57.3,11.9a201.437,201.437,0,0,1,29.62,18.96,297.437,297.437,0,0,1,37.97,34.87,361.921,361.921,0,0,0-48.35-34.36A307.8,307.8,0,0,0,3435.261,1151.449Z" transform="translate(-2020)" fill="none" stroke="#170000" stroke-miterlimit="10" stroke-width="4"/>
    <path id="Path_59" data-name="Path 59" d="M3603.131,1414.459c-3.27,21.47-11.48,41.6-25.81,59.18a127.445,127.445,0,0,1-17.7,17.77,166.506,166.506,0,0,1-39.71,24,393.394,393.394,0,0,1-91.52,26.95c47.39-16.34,93.66-40.88,132.32-73.46q6.675-5.625,12.4-11.41c14.87-50.06,13.57-110.21,1.28-162.58a.035.035,0,0,1-.01-.02,363.253,363.253,0,0,0-19.55-46.2q6.33,9.48,12.07,19.37C3594.131,1315.039,3610.231,1367.909,3603.131,1414.459Z" transform="translate(-2020)" fill="none" stroke="#170000" stroke-miterlimit="10" stroke-width="4"/>
    <text id="ub" transform="translate(1210.453 1483.016)" fill="#ff4545" font-size="149.301" font-family="Helvetica" letter-spacing="0.05em"><tspan x="0" y="0">ub</tspan></text>
    <path id="Path_60" data-name="Path 60" d="M3406.334,1260.76l-67.094,21.175a12.6,12.6,0,0,1-15.808-8.224l-9.426-29.867a10.08,10.08,0,0,1,6.578-12.647l70.748-22.328a11.906,11.906,0,0,1,8.648.578l15.735,7.394,6.988,22.142-8.329,15.178A13.97,13.97,0,0,1,3406.334,1260.76Z" transform="translate(-2020)" fill="#170000"/>
    <circle id="Ellipse_1" data-name="Ellipse 1" cx="3.48" cy="3.48" r="3.48" transform="translate(1383.301 1227.6)" fill="#ff4545"/>
    <path id="Path_61" data-name="Path 61" d="M3402.1,1228.68s19.2,7.44,38.4,1.2,46.32,32.88,7.92,66.24" transform="translate(-2020)" fill="none" stroke="#170000" stroke-miterlimit="10" stroke-width="4"/>
  </g>
</svg>
