<svg xmlns="http://www.w3.org/2000/svg" width="517.006" height="491.215" viewBox="0 0 517.006 491.215">
  <g id="Urban_Mandi" data-name="Urban Mandi" transform="translate(-1068.814 -457.973)">
    <text id="URBAN_MANDI-2" data-name="URBAN MANDI" transform="translate(1181.817 941.188)" fill="#000c1a" font-size="36.765" font-family="Helvetica" letter-spacing="0.15em"><tspan x="0" y="0">URBAN MANDI</tspan></text>
    <path id="Path_16" data-name="Path 16" d="M3560.331,780q-5.73,5.79-12.4,11.41c-38.66,32.58-84.93,57.12-132.32,73.46a451.985,451.985,0,0,1-54.48,5.93,451.741,451.741,0,0,1-48.38-7.74c-68.25-24.29-129.52-65.01-170.23-109.2,10-25.19,28.28-53.94,56.55-86.29,0,0,21.87-23.72,53.99-83.17q4.68-8.655,9.63-18.33,4.275-8.355,8.74-17.51c8.2-16.82,16.83-35.66,25.75-56.67,13.19-31.05,45.82-38.97,85.04-30.85a216.184,216.184,0,0,1,40.26,12.92,307.808,307.808,0,0,1,36.28,18.45,361.933,361.933,0,0,1,48.35,34.36.078.078,0,0,1,.03.02,361.506,361.506,0,0,1,34.91,44.41,363.252,363.252,0,0,1,19.55,46.2.035.035,0,0,0,.01.02C3573.9,669.79,3575.2,729.94,3560.331,780Z" transform="translate(-2020)" fill="#17caff"/>
    <path id="Path_17" data-name="Path 17" d="M3361.131,870.8a451.985,451.985,0,0,0,54.48-5.93q-12.69,4.38-25.46,7.98-11.235,3.165-22.45,5.72c-114.69,26.16-223.22,4.05-233.79-68.51a93.828,93.828,0,0,1,1.31-32.21,143.3,143.3,0,0,1,7.3-23.99c40.71,44.19,101.98,84.91,170.23,109.2A451.741,451.741,0,0,0,3361.131,870.8Z" transform="translate(-2020)" fill="#00d05e"/>
    <path id="Path_18" data-name="Path 18" d="M3590.351,736.97a131.787,131.787,0,0,1-14.7,25.25,158.432,158.432,0,0,1-15.32,17.78c14.87-50.06,13.57-110.21,1.28-162.58a.035.035,0,0,1-.01-.02,363.252,363.252,0,0,0-19.55-46.2,361.506,361.506,0,0,0-34.91-44.41c6.88,5.79,13.57,11.85,19.99,18.15q8.13,7.965,15.67,16.4C3589.291,613.55,3616.141,678.15,3590.351,736.97Z" transform="translate(-2020)" fill="#17caff"/>
    <path id="Path_19" data-name="Path 19" d="M3199.067,667.568s104.274,47.032,136.292-11.288c67.123-122.265,403.361-25.677,212.575,135.128S2981.025,917.125,3199.067,667.568Z" transform="translate(-2020)" fill="#000c1a"/>
    <path id="Path_20" data-name="Path 20" d="M3252.451,550.78s6.32-.26,18.98-2.22q-4.455,9.15-8.74,17.51-4.95,9.69-9.63,18.33c-32.12,59.45-53.99,83.17-53.99,83.17-28.27,32.35-46.55,61.1-56.55,86.29a252.829,252.829,0,0,1-30.36-39.75c-8.34-13.74-14.4-27.46-17.79-40.77C3078.811,612.36,3119.191,559.76,3252.451,550.78Z" transform="translate(-2020)" fill="none" stroke="#000c1a" stroke-miterlimit="10" stroke-width="4"/>
    <path id="Path_21" data-name="Path 21" d="M3507.111,526.77a361.933,361.933,0,0,0-48.35-34.36,49.776,49.776,0,0,1,10.38-.51,52.38,52.38,0,0,1,16.92,3.88c22.41,9.13,42.02,33.36,56.74,65.56a272.926,272.926,0,0,1,11.32,29.23c2.82,8.64,5.33,17.61,7.48,26.83a363.252,363.252,0,0,0-19.55-46.2,361.506,361.506,0,0,0-34.91-44.41A.078.078,0,0,0,3507.111,526.77Z" transform="translate(-2020)" fill="none" stroke="#000c1a" stroke-miterlimit="10" stroke-width="4"/>
    <path id="Path_22" data-name="Path 22" d="M3547.931,791.41q6.675-5.625,12.4-11.41a192.329,192.329,0,0,1-13.49,33.92,147.893,147.893,0,0,1-18.42,27.78c-25.49,30.15-63.49,47.89-116.86,43.34a369.273,369.273,0,0,1-43.86-6.47q-14.7-3.06-29.16-7.22-13.035-3.735-25.79-8.29a451.741,451.741,0,0,0,48.38,7.74,451.985,451.985,0,0,0,54.48-5.93C3463,848.53,3509.271,823.99,3547.931,791.41Z" transform="translate(-2020)" fill="none" stroke="#000c1a" stroke-miterlimit="10" stroke-width="4"/>
    <path id="Path_23" data-name="Path 23" d="M3312.751,863.06c-71.73-15.44-136.7-47.26-177.53-85.21-12.78-11.87-23.2-24.34-30.71-37.1-13.06-22.15-17.37-45.17-10.14-67.41,11.48-35.33,52.13-68.68,133.18-93.42,0,0,11.99-3.31,35.14-13.85q-4.95,9.69-9.63,18.33c-32.12,59.45-53.99,83.17-53.99,83.17-28.27,32.35-46.55,61.1-56.55,86.29C3183.231,798.05,3244.5,838.77,3312.751,863.06Z" transform="translate(-2020)" fill="none" stroke="#000c1a" stroke-miterlimit="10" stroke-width="4"/>
    <path id="Path_24" data-name="Path 24" d="M3458.761,492.41a307.808,307.808,0,0,0-36.28-18.45,51.083,51.083,0,0,1,17.04-1.02c15.49,1.6,31.34,9.81,46.54,22.84,14.57,12.48,28.56,29.39,41.07,49.16,5.25,8.29,10.24,17.08,14.92,26.26a361.506,361.506,0,0,0-34.91-44.41.078.078,0,0,0-.03-.02A361.933,361.933,0,0,0,3458.761,492.41Z" transform="translate(-2020)" fill="none" stroke="#000c1a" stroke-miterlimit="10" stroke-width="4"/>
    <path id="Path_25" data-name="Path 25" d="M3575.651,762.22a155.62,155.62,0,0,1-11.11,33.93,121.032,121.032,0,0,1-36.12,45.55c-17.87,13.72-40.94,23.43-70.04,27.65a381.72,381.72,0,0,1-68.23,3.5q-14.55-.525-29.02-2.05a451.985,451.985,0,0,0,54.48-5.93c47.39-16.34,93.66-40.88,132.32-73.46q6.675-5.625,12.4-11.41c14.87-50.06,13.57-110.21,1.28-162.58C3578.031,665.21,3584.991,717.53,3575.651,762.22Z" transform="translate(-2020)" fill="none" stroke="#000c1a" stroke-miterlimit="10" stroke-width="4"/>
    <path id="Path_26" data-name="Path 26" d="M3312.751,863.06a451.741,451.741,0,0,0,48.38,7.74q-11.34.555-22.59.55c-84.85,0-163.51-23.25-204.63-61.29-21.17-19.57-32.39-43.06-29.4-69.31a87.8,87.8,0,0,1,7.65-26.64c13.28-29.11,43.5-60.81,95.49-93.8,0,0,16.3-9.74,45.41-35.91-32.12,59.45-53.99,83.17-53.99,83.17-28.27,32.35-46.55,61.1-56.55,86.29C3183.231,798.05,3244.5,838.77,3312.751,863.06Z" transform="translate(-2020)" fill="none" stroke="#000c1a" stroke-miterlimit="10" stroke-width="4"/>
    <path id="Path_27" data-name="Path 27" d="M3422.481,473.96a216.184,216.184,0,0,0-40.26-12.92c17.09-3.28,36.86,1.36,57.3,11.9a201.451,201.451,0,0,1,29.62,18.96,297.459,297.459,0,0,1,37.97,34.87,361.933,361.933,0,0,0-48.35-34.36A307.808,307.808,0,0,0,3422.481,473.96Z" transform="translate(-2020)" fill="none" stroke="#000c1a" stroke-miterlimit="10" stroke-width="4"/>
    <path id="Path_28" data-name="Path 28" d="M3590.351,736.97c-3.27,21.47-11.48,41.6-25.81,59.18a127.445,127.445,0,0,1-17.7,17.77,166.5,166.5,0,0,1-39.71,24,393.4,393.4,0,0,1-91.52,26.95c47.39-16.34,93.66-40.88,132.32-73.46q6.675-5.625,12.4-11.41c14.87-50.06,13.57-110.21,1.28-162.58a.035.035,0,0,1-.01-.02,363.252,363.252,0,0,0-19.55-46.2q6.33,9.48,12.07,19.37C3581.351,637.55,3597.451,690.42,3590.351,736.97Z" transform="translate(-2020)" fill="none" stroke="#000c1a" stroke-miterlimit="10" stroke-width="4"/>
    <text id="um" transform="translate(1197.673 805.526)" fill="#17caff" font-size="149.301" font-family="Helvetica" letter-spacing="0.05em"><tspan x="0" y="0">um</tspan></text>
    <rect id="Rectangle_9" data-name="Rectangle 9" width="33.12" height="95.76" transform="translate(1300.261 595.8)" fill="#000c1a"/>
    <rect id="Rectangle_10" data-name="Rectangle 10" width="33.12" height="95.76" transform="translate(1345.661 584.4)" fill="#000c1a"/>
    <rect id="Rectangle_11" data-name="Rectangle 11" width="17.28" height="95.76" transform="translate(1339.861 566.07)" fill="#000c1a"/>
    <rect id="Rectangle_12" data-name="Rectangle 12" width="25.61" height="95.76" transform="translate(1386.971 553.173)" fill="#000c1a"/>
    <rect id="Rectangle_13" data-name="Rectangle 13" width="25.61" height="95.76" transform="translate(1271.771 628.533)" fill="#000c1a"/>
    <path id="Path_29" data-name="Path 29" d="M3264.581,617.42s80.78-27.14,142.39-85.7l10.73,12V514.44l-28.32-4.8,11.04,12.283S3357.7,577.36,3264.581,617.42Z" transform="translate(-2020)" fill="#000c1a"/>
  </g>
</svg>
